<svg width="70" height="70" viewBox="0 0 70 70" fill="none" xmlns="http://www.w3.org/2000/svg">
<g clip-path="url(#clip0_4_67)">
<path d="M59.258 12.1206C54.7964 10.0735 50.012 8.56522 45.0097 7.70138C44.9186 7.68471 44.8276 7.72637 44.7807 7.8097C44.1654 8.90408 43.4838 10.3318 43.0065 11.4539C37.6262 10.6485 32.2735 10.6485 27.0034 11.4539C26.5261 10.3068 25.8197 8.90408 25.2017 7.8097C25.1547 7.72915 25.0637 7.68749 24.9726 7.70138C19.9731 8.56246 15.1887 10.0707 10.7244 12.1206C10.6857 12.1373 10.6526 12.1651 10.6306 12.2012C1.55573 25.7589 -0.930272 38.9834 0.289275 52.0439C0.294794 52.1078 0.330662 52.1689 0.380328 52.2078C6.36769 56.6047 12.1675 59.2741 17.8596 61.0434C17.9507 61.0712 18.0472 61.0379 18.1052 60.9629C19.4516 59.1242 20.6519 57.1854 21.681 55.1465C21.7417 55.0271 21.6837 54.8854 21.5596 54.8382C19.6558 54.116 17.843 53.2355 16.0992 52.2356C15.9613 52.155 15.9502 51.9577 16.0771 51.8633C16.4441 51.5883 16.8111 51.3022 17.1615 51.0133C17.2249 50.9606 17.3133 50.9494 17.3878 50.9828C28.8437 56.2131 41.2462 56.2131 52.5669 50.9828C52.6415 50.9467 52.7298 50.9578 52.796 51.0106C53.1465 51.2994 53.5134 51.5883 53.8831 51.8633C54.01 51.9577 54.0017 52.155 53.8638 52.2356C52.12 53.2549 50.3072 54.116 48.4007 54.8354C48.2765 54.8826 48.2213 55.0271 48.2821 55.1465C49.3332 57.1825 50.5335 59.1213 51.8551 60.9601C51.9103 61.0379 52.0096 61.0712 52.1007 61.0434C57.8204 59.2741 63.6201 56.6047 69.6075 52.2078C69.66 52.1689 69.6931 52.1105 69.6986 52.0467C71.1582 36.9473 67.2539 23.8312 59.349 12.2039C59.3296 12.1651 59.2966 12.1373 59.258 12.1206ZM23.3917 44.0914C19.9427 44.0914 17.1008 40.9249 17.1008 37.0362C17.1008 33.1474 19.8876 29.981 23.3917 29.981C26.9234 29.981 29.7378 33.1752 29.6826 37.0362C29.6826 40.9249 26.8958 44.0914 23.3917 44.0914ZM46.6513 44.0914C43.2024 44.0914 40.3605 40.9249 40.3605 37.0362C40.3605 33.1474 43.1472 29.981 46.6513 29.981C50.1831 29.981 52.9974 33.1752 52.9423 37.0362C52.9423 40.9249 50.1831 44.0914 46.6513 44.0914Z" fill="#5865F2"/>
</g>
<defs>
<clipPath id="clip0_4_67">
<rect width="70" height="70" fill="white"/>
</clipPath>
</defs>
</svg>
