<svg width="70" height="70" viewBox="0 0 70 70" fill="none" xmlns="http://www.w3.org/2000/svg">
<path fill-rule="evenodd" clip-rule="evenodd" d="M34.9884 0C26.6793 0.00444533 18.6426 3.03899 12.3155 8.56101C5.98832 14.083 1.78325 21.7325 0.452175 30.1415C-0.878902 38.5505 0.750797 47.1708 5.0499 54.461C9.34901 61.7511 16.0372 67.2357 23.9184 69.9341C25.6572 70.2669 26.3121 69.1557 26.3121 68.2109C26.3121 67.266 26.2773 64.5267 26.2657 61.5318C16.5288 63.7007 14.4713 57.295 14.4713 57.295C12.8832 53.1354 10.5881 52.042 10.5881 52.042C7.412 49.8197 10.8257 49.8613 10.8257 49.8613C14.3438 50.1168 16.1927 53.5633 16.1927 53.5633C19.3108 59.0479 24.3821 57.4614 26.3758 56.5344C26.6888 54.211 27.5988 52.6303 28.6014 51.7331C20.8235 50.8298 12.6514 47.7518 12.6514 34.0014C12.6032 30.4354 13.8939 26.9868 16.2564 24.3691C15.8971 23.4659 14.6973 19.8173 16.5983 14.8615C16.5983 14.8615 19.5368 13.8989 26.2252 18.5398C31.962 16.9313 38.0148 16.9313 43.7517 18.5398C50.4342 13.8989 53.3669 14.8615 53.3669 14.8615C55.2737 19.8055 54.074 23.454 53.7146 24.3691C56.0846 26.9872 57.378 30.4418 57.3254 34.0133C57.3254 47.7934 49.136 50.8298 41.3464 51.7152C42.5983 52.8324 43.7169 55.0132 43.7169 58.3646C43.7169 63.1659 43.6763 67.0284 43.6763 68.2109C43.6763 69.1676 44.308 70.2847 46.0816 69.9341C53.9638 67.2354 60.6526 61.7498 64.9516 54.4584C69.2506 47.167 70.8795 38.5455 69.5469 30.1356C68.2143 21.7258 64.0071 14.0763 57.6779 8.55525C51.3486 3.03417 43.3101 0.00162766 35 0H34.9884Z" fill="#191717"/>
</svg>
