<svg width="70" height="70" viewBox="0 0 70 70" fill="none" xmlns="http://www.w3.org/2000/svg">
<g clip-path="url(#clip0_4_74)">
<path d="M64.8326 0H5.16736C3.79689 0 2.48255 0.544418 1.51349 1.51349C0.544418 2.48255 0 3.79689 0 5.16736V64.8326C0 66.2031 0.544418 67.5175 1.51349 68.4865C2.48255 69.4556 3.79689 70 5.16736 70H64.8326C66.2031 70 67.5175 69.4556 68.4865 68.4865C69.4556 67.5175 70 66.2031 70 64.8326V5.16736C70 3.79689 69.4556 2.48255 68.4865 1.51349C67.5175 0.544418 66.2031 0 64.8326 0ZM20.8639 59.6313H10.3396V26.2014H20.8639V59.6313ZM15.5944 21.5688C14.4006 21.562 13.2356 21.2018 12.2463 20.5336C11.257 19.8654 10.4879 18.919 10.0359 17.8141C9.58392 16.7091 9.46939 15.4951 9.70676 14.3251C9.94413 13.1551 10.5228 12.0816 11.3696 11.2402C12.2165 10.3988 13.2936 9.82703 14.4651 9.59718C15.6366 9.36733 16.8499 9.48965 17.9519 9.94871C19.054 10.4078 19.9953 11.183 20.6572 12.1765C21.3191 13.1701 21.6718 14.3374 21.6708 15.5313C21.6821 16.3305 21.5323 17.1239 21.2305 17.864C20.9286 18.6042 20.4808 19.276 19.9137 19.8394C19.3467 20.4028 18.6721 20.8462 17.93 21.1434C17.1879 21.4405 16.3936 21.5851 15.5944 21.5688ZM59.6556 59.6604H49.1361V41.3972C49.1361 36.0111 46.8465 34.3486 43.891 34.3486C40.7701 34.3486 37.7076 36.7014 37.7076 41.5333V59.6604H27.1833V26.2257H37.3042V30.8583H37.4403C38.4563 28.8021 42.0146 25.2875 47.4445 25.2875C53.3167 25.2875 59.6604 28.7729 59.6604 38.9813L59.6556 59.6604Z" fill="#0A66C2"/>
</g>
<defs>
<clipPath id="clip0_4_74">
<rect width="70" height="70" fill="white"/>
</clipPath>
</defs>
</svg>
